<?xml version="1.0" standalone="no"?>
<!DOCTYPE svg PUBLIC "-//W3C//DTD SVG 20010904//EN"
 "http://www.w3.org/TR/2001/REC-SVG-20010904/DTD/svg10.dtd">
<svg version="1.0" xmlns="http://www.w3.org/2000/svg"
 width="496.000000pt" height="496.000000pt" viewBox="0 0 496.000000 496.000000"
 preserveAspectRatio="xMidYMid meet">
<metadata>
Created by potrace 1.14, written by Peter Selinger 2001-2017
</metadata>
<g transform="translate(0.000000,496.000000) scale(0.100000,-0.100000)"
fill="#000000" stroke="none">
<path d="M2309 4946 c-2 -2 -40 -7 -84 -10 -44 -4 -87 -9 -95 -11 -8 -2 -32
-6 -53 -9 -290 -43 -650 -182 -917 -354 -54 -35 -184 -127 -207 -147 -6 -5
-31 -26 -55 -45 -68 -54 -257 -247 -324 -330 -238 -296 -394 -613 -484 -982
-29 -117 -33 -140 -46 -233 -3 -27 -8 -61 -11 -75 -12 -72 -10 -435 3 -545 51
-439 210 -844 472 -1200 24 -33 47 -62 51 -65 3 -3 19 -23 36 -45 30 -41 236
-250 290 -295 105 -87 288 -220 303 -220 4 0 24 -11 44 -25 91 -61 287 -153
459 -213 84 -30 297 -85 374 -97 171 -26 250 -32 426 -32 247 0 451 29 689 98
275 79 550 218 789 398 171 128 354 311 476 476 33 44 62 82 65 85 3 3 10 14
17 25 7 11 35 58 64 104 90 147 166 310 227 486 23 67 68 224 77 270 7 39 32
189 40 240 11 71 13 437 4 525 -52 470 -215 887 -493 1255 -86 114 -241 280
-358 382 -67 59 -248 189 -326 235 -327 192 -596 285 -997 344 -46 6 -450 16
-456 10z"/>
</g>
</svg>
